<?xml version="1.0" encoding="UTF-8" standalone="no"?>
<!-- Created with Inkscape (http://www.inkscape.org/) -->

<svg
   version="1.1"
   id="svg209"
   width="609"
   height="609"
   viewBox="0 0 609 609"
   sodipodi:docname="logoSinfondoCEASblanco.svg"
   inkscape:version="1.2 (56b05e47e7, 2022-06-09, custom)"
   xmlns:inkscape="http://www.inkscape.org/namespaces/inkscape"
   xmlns:sodipodi="http://sodipodi.sourceforge.net/DTD/sodipodi-0.dtd"
   xmlns="http://www.w3.org/2000/svg"
   xmlns:svg="http://www.w3.org/2000/svg">
  <defs
     id="defs213" />
  <sodipodi:namedview
     id="namedview211"
     pagecolor="#ffffff"
     bordercolor="#666666"
     borderopacity="1.0"
     inkscape:showpageshadow="2"
     inkscape:pageopacity="0.0"
     inkscape:pagecheckerboard="0"
     inkscape:deskcolor="#d1d1d1"
     showgrid="false"
     inkscape:zoom="0.38752053"
     inkscape:cx="250.30932"
     inkscape:cy="304.5"
     inkscape:window-width="1366"
     inkscape:window-height="683"
     inkscape:window-x="0"
     inkscape:window-y="0"
     inkscape:window-maximized="1"
     inkscape:current-layer="g219" />
  <g
     inkscape:groupmode="layer"
     inkscape:label="Image"
     id="g215">
    <g
       id="g219"
       transform="translate(4.2227798,6.2432107)">
      <path
         style="fill:#ffffff;fill-opacity:1"
         d="m 301.5,532.4427 c -1.65,-0.2201 -8.175,-0.91999 -14.5,-1.55532 -17.48048,-1.75586 -42.06436,-7.269 -55,-12.33422 -1.925,-0.75378 -6.2,-2.37515 -9.5,-3.60306 -8.88522,-3.30613 -32.70267,-15.38703 -40.86976,-20.73033 -16.16694,-10.57719 -26.97062,-19.44319 -42.23818,-34.66261 -8.85937,-8.83144 -18.68829,-19.57671 -21.84204,-23.87839 C 111.04088,426.80039 103,415.16084 103,414.61692 c 0,-0.2 -2.10603,-3.86756 -4.680067,-8.15013 C 92.800288,397.28345 84.58464,379.14349 80.218839,366.5 74.396152,349.63732 71.584046,338.01574 68.362175,317.5 65.993642,302.41802 65.988834,265.82804 68.353436,251 74.358186,213.34518 83.766716,186.47415 101.32302,156.83792 119.22171,126.62373 144.34401,100.12867 176.5,77.553052 199.28598,61.555794 235.79989,46.467251 266.32674,40.434188 279.69629,37.791946 298.85891,36.03946 314.5,36.028582 373.61601,35.987467 428.27704,55.795193 474.47683,94 c 7.50418,6.20556 23.42698,22.3604 30.81302,31.26204 17.10486,20.61477 33.27467,48.42255 42.0053,72.23796 22.61872,61.69935 20.32606,129.14067 -6.42403,188.97021 -2.69766,6.03362 -6.62639,13.90862 -8.73051,17.5 -2.10412,3.59138 -4.12455,7.20479 -4.48984,8.02979 -0.36529,0.825 -2.34865,4.03953 -4.40747,7.14339 -19.28312,29.07119 -40.63069,50.97562 -68.2433,70.02347 -11.50888,7.93911 -28.81878,17.64225 -39,21.86163 -4.125,1.70951 -8.85,3.71774 -10.5,4.46274 -1.65,0.745 -4.24325,1.66447 -5.76277,2.04327 -1.51953,0.3788 -3.09453,1.26056 -3.5,1.95946 -0.40548,0.6989 -2.53723,1.48645 -4.73723,1.75012 -2.2,0.26366 -7.6,1.45555 -12,2.64864 -12.36785,3.35363 -20.94532,5.03355 -34,6.65899 -12.07271,1.50317 -38.419,2.63546 -44,1.89099 z m 43.79519,-14.03139 C 366.38818,515.12753 366,515.25221 366,511.76102 c 0,-1.70346 -0.43927,-5.83405 -0.97615,-9.17911 C 364.48697,499.23686 362.68749,486.825 361.025,475 c -1.66249,-11.825 -3.37318,-23.525 -3.80153,-26 l -0.77882,-4.5 H 321.5 286.55535 l -0.77992,4.5 c -1.4238,8.21513 -6.50287,44.40903 -8.59034,61.21553 l -0.83411,6.71554 5.07451,0.99779 c 8.42347,1.65629 10.26859,1.76581 32.3697,1.92131 15.16907,0.10673 24.23087,-0.3072 31.5,-1.43886 z M 250.39987,507.25 c 4.85509,-31.62683 9.13805,-57.1904 14.28292,-85.25 4.4557,-24.30094 4.25794,-21.98796 1.92061,-22.46281 -1.15687,-0.23502 -5.9284,-0.93556 -10.6034,-1.55673 -44.41934,-5.90212 -80.09049,-25.55399 -96.85461,-53.35893 -17.11297,-28.38353 -18.20104,-72.93608 -2.65028,-108.51991 3.2718,-7.48664 3.31458,-7.77556 2.82837,-19.10162 -0.32102,-7.47802 -1.16392,-13.51392 -2.4101,-17.25838 -3.79732,-11.41002 -5.15359,-23.13813 -4.65364,-40.24162 0.41018,-14.03246 0.81801,-17.10674 3.31644,-25 3.01769,-9.53372 4.63009,-26.5 2.51846,-26.5 -1.54867,0 -17.26706,16.06856 -25.78247,26.35683 -6.57676,7.94601 -12.8587,16.472 -15.81217,21.46063 -0.55,0.92899 -2.65844,4.39863 -4.68543,7.71032 C 97.584516,186.77683 87.079142,215.4241 81.570804,246 c -2.095411,11.63129 -3.902678,37.09026 -3.194434,45 0.320108,3.575 0.851048,10.325 1.179867,15 1.230523,17.49503 8.377073,48.3161 14.492014,62.5 0.47423,1.1 1.967564,4.7 3.31852,8 2.869039,7.00824 11.933219,24.59045 16.767299,32.52427 6.13725,10.07263 21.09222,29.1607 30.64072,39.10889 10.48961,10.92868 24.39615,22.56862 37.22521,31.15794 4.675,3.13001 8.97292,6.03247 9.55092,6.44991 3.29051,2.37644 23.34405,12.70444 30.94908,15.93943 8.44695,3.59313 22.67776,8.5055 26.6621,9.20356 0.36416,0.0638 0.92116,-1.5715 1.23777,-3.634 z m 166.8079,-10.63437 c 22.63525,-10.93688 43.1388,-25.30368 60.53504,-42.4168 13.4204,-13.202 18.28084,-18.59881 25.39619,-28.19883 25.55744,-34.48204 40.21399,-71.05474 45.81357,-114.31925 2.45507,-18.96884 2.58694,-33.31929 0.474,-51.58154 -3.8869,-33.59469 -14.58655,-66.7065 -29.9554,-92.70181 C 517.01202,163.23794 515,159.64855 515,159.42099 c 0,-0.50853 -8.70398,-12.78751 -14.82987,-20.92099 -4.75045,-6.30727 -31.0166,-33.5 -32.3585,-33.5 -0.42933,0 -0.53153,27.5625 -0.22712,61.25 l 0.55348,61.25 3.41624,9 c 5.33353,14.05107 7.47096,24.4561 8.13463,39.59938 2.63998,60.2378 -28.63631,100.06714 -91.38515,116.37604 C 382.96136,393.86394 377.78252,395 376.79517,395 c -2.14038,0 -2.17386,1.05804 -0.34803,11 5.85237,31.86719 11.50646,64.74754 15.04646,87.5 0.9413,6.05 1.8618,11.52498 2.04555,12.16663 0.38454,1.34278 8.88468,-1.90772 23.66862,-9.051 z M 350.64044,410.25 c -0.27189,-0.9625 -0.80267,-3.72706 -1.17952,-6.14346 l -0.68519,-4.39345 -9.63786,0.63828 c -5.30083,0.35106 -17.60498,0.64061 -27.34256,0.64346 l -17.70468,0.005 -0.63264,3.75 c -0.34794,2.0625 -0.84866,4.5375 -1.1127,5.5 -0.44937,1.6381 1.4149,1.75 29.15471,1.75 27.74525,0 29.60326,-0.11158 29.14044,-1.75 z M 336.875,356.375 c 3.86485,-0.77297 3.87961,-1.1859 0.60294,-16.875 -1.37841,-6.6 -3.66828,-17.625 -5.0886,-24.5 -4.62156,-22.37044 -10.30135,-48.24534 -10.67159,-48.61558 -0.54393,-0.54393 -12.84797,56.42229 -18.114,83.86558 l -1.29524,6.75 h 15.72075 c 8.6464,0 17.12699,-0.28125 18.84574,-0.625 z m -59.49994,-2.125 c 0.28041,-0.9625 1.91026,-8.5 3.62188,-16.75 5.55903,-26.79441 18.60936,-85.13025 22.61384,-101.08537 0.62017,-2.47093 0.371,-2.38885 -6.00986,1.97965 -14.90689,10.20566 -29.13628,15.0703 -48.08363,16.43848 -18.75552,1.35433 -36.92244,-1.31224 -50.52317,-7.41588 -3.2168,-1.44362 -6.30195,-2.34466 -6.85588,-2.00232 -1.51848,0.93848 -7.14996,16.1539 -8.72029,23.56098 -1.83045,8.63397 -1.7834,27.84908 0.0876,35.78473 4.2213,17.90404 17.07511,31.88292 36.90932,40.13992 12.71653,5.2939 38.15811,10.75349 51.26772,11.00169 4.12766,0.0781 5.28639,-0.2581 5.69245,-1.65188 z m 113.28507,-7.78402 c 28.95914,-9.54933 44.92072,-23.99689 50.87675,-46.0509 3.59113,-13.29723 2.77618,-37.4068 -1.6479,-48.75183 -4.19102,-10.74737 -10.18954,-21.47916 -12.62633,-22.58944 -1.33086,-0.60638 -2.2719,-1.43355 -2.0912,-1.83816 0.1807,-0.40461 2.12855,-4.3099 4.32855,-8.67842 l 4,-7.94277 0.32821,-18.82994 c 0.36235,-20.78787 -0.0787,-22.81088 -6.72715,-30.85523 -10.26773,-12.42356 -35.39326,-15.32176 -54.03261,-6.2326 -9.16319,4.46828 -21.98583,16.69206 -29.90479,28.50815 L 338,190.90968 v 17.03105 C 338,226.3068 337.79674,225.13059 349.50191,274.5 352.56906,287.43645 365,345.4413 365,346.81667 c 0,0.57922 0.42417,2.16878 0.9426,3.53235 l 0.9426,2.47922 6.8074,-1.50597 c 3.74407,-0.82828 11.37946,-3.01362 16.96753,-4.85629 z M 259.66664,215.1431 c 13.85479,-4.73654 25.60391,-14.01745 36.63664,-28.94017 3.53885,-4.78661 6.88448,-9.60293 7.43471,-10.70293 0.61569,-1.23085 0.80665,-9.01851 0.49653,-20.25 l -0.50391,-18.25 -50.1153,0.009 c -27.56342,0.005 -52.47781,0.29246 -55.36531,0.63929 l -5.25,0.6306 0.009,26.61071 0.009,26.61071 2.93368,5.1149 c 5.39852,9.41235 17.72105,17.86456 29.55771,20.27409 8.18376,1.66593 26.98813,0.70475 34.15648,-1.74589 z M 371.8966,96.367355 c 82.58309,-0.623891 84.3451,-0.677625 82,-2.500683 C 452.57847,92.841971 448.575,90.050353 445,87.663075 391.4979,51.935974 325.70415,39.625256 263.52669,53.707465 c -10.6727,2.417198 -31.72105,8.93644 -37.94312,11.75201 -16.27623,7.365202 -28.57119,13.76595 -37.2023,19.367492 C 173.84667,94.259832 171,96.289778 171,97.221449 c 0,0.718162 18.10957,0.846509 58.25,0.412831 32.0375,-0.346134 96.22847,-0.91625 142.6466,-1.266925 z"
         id="path221" />
    </g>
  </g>
</svg>
